<svg xmlns="http://www.w3.org/2000/svg" viewBox="0 0 2443.28 660.07"><defs><style>.cls-1{fill:#fae141;}.cls-2{fill:#fdea72;}.cls-3{fill:#7b7b90;}.cls-4{fill:#aba67e;}.cls-5{fill:#aba67d;}.cls-6{fill:#7c7c8f;}.cls-7{fill:#c0b152;}.cls-8{fill:#fff;}</style></defs><g id="Layer_2" data-name="Layer 2"><g id="Layer_1-2" data-name="Layer 1"><path class="cls-1" d="M662.14,327.79q0-80.51-.1-161c0-1.87-.16-3.74-.17-5.61-.06-16.34-.53-32.7,0-49,.53-17.5.28-34.89-3.47-52.06-3.19-14.61-8.67-28.13-20-38.49-8.79-8-19.57-12.32-30.8-15.44C589.38,1.12,570.75,0,552,0Q447.55.09,343.09.06c-1.5,0-3,.1-4.49.16h0q0,87.24,0,174.47c1.82,3.48,3.88,6.84,4.53,10.84,1,6.06-1.24,11.11-4.61,15.87q0,45.25.09,90.52,0,18.15,0,36.29h0c8.46,10.22,6.11,20.45,0,30.67l0,155h0c1.24,1.84,2.6,3.62,3.71,5.54,2.44,4.22,1.18,6.67-3.71,7.45q0,9.85,0,19.71c0,1.37-.13,2.75.7,4h0c4.39,3.41,1.1,6.21-.71,9.13q0,50.13.05,100.24h0c1.62,0,3.24.14,4.86.15H555c18.52,0,36.83-1.86,54.72-6.78,21.07-5.79,36.72-17.76,44.4-39,5.33-14.74,7.42-30,7.81-45.45.45-18-.51-36.09.28-54.15.61-13.95,0-27.95,0-41.93Q662.18,400.23,662.14,327.79Zm-296.08,239a12.09,12.09,0,0,1-.49,4c-.68,1.85-2.08,3.21-4.27,2.92a3.69,3.69,0,0,1-3.47-3.75c-.1-1.62-.31-3.23-.31-4.85q0-27.89,0-55.78a43.51,43.51,0,0,1,.39-5.59,3.31,3.31,0,0,1,3.52-3.17c2.11-.05,3.74.77,4.15,2.95a31.45,31.45,0,0,1,.47,5.58c0,9.48,0,19,0,28.45C366.08,547.28,366.1,557,366.06,566.75ZM453.17,531q0,18.53,0,37.06c0,4.88-1.39,6.07-6.13,6.39-4.27.3-7.11-1.12-9.79-4.62-14.05-18.29-28.36-36.37-42.63-54.49-1-1.29-1.83-3.75-3.66-3.15-1.53.5-.67,2.88-.67,4.4-.05,17.22,0,34.43,0,51.65a12.3,12.3,0,0,1-.09,3c-.54,2.13-1.88,3.54-4.23,3.44a3.74,3.74,0,0,1-3.88-3.74,20.89,20.89,0,0,1,0-2.24q0-29.58,0-59.14c0-4.63,1.06-5.57,5.6-6,5.51-.56,9.36,1,12.95,5.78,13.9,18.4,28.34,36.38,42.59,54.52.36.46.76.9,1.77,2.1v-58.6c0-2.29,0-4.66,2.84-5.38,3.33-.84,5.35.91,5.38,4.74C453.22,514.8,453.17,522.91,453.17,531Zm87.51,20.62c-5.13,11.8-14.42,19-26.75,21.06-15.57,2.67-29.67-1.43-39.68-17.09-14.49-22.65.92-52.79,27.75-55.29,16.53-1.54,29.15,4.58,37.76,18.81,1.49,2.45,2.06,5-.61,7-2.18,1.63-4.75.49-6.59-2.71-6.77-11.72-17.13-16.22-30.25-14.75-11.3,1.28-19.05,7.57-23.36,18-7.2,17.36,6.73,37.93,25.55,38.49,10.23.3,18.44-3.18,25.18-10.64h0c2.65-2.78,3-7,6.18-9.77-9.78,0-19.21,0-28.64,0-2.87,0-5.37-.43-5.41-4s2.31-4.24,5.26-4.23q14,0,28,0c2.07,0,3.94.17,5.07,2.31s.06,3.75-1.32,5.31c-.26.3-.16.91-.23,1.37C542.18,546.5,541.82,549,540.68,551.64Zm-9.21-195.1a45.49,45.49,0,0,1-7.88,9.88h0c-9.35,10-20.86,16.69-33.44,21.73-2.52,1-5,2.14-7.81,2.17-6.63,3.06-13.71,4.3-20.89,5-18.69,1.87-37.34,1.91-55.65-2.83-20.06-5.18-36.18-15.87-45.82-34.81-9.54-18.74-3.24-29.41,12.23-38.19,10.15-5.75,17.21-3.65,24.14,5.91,13.87,19.14,32.94,25.44,55.74,22.6,1.85-.23,3.72-.27,5.58-.4h0c3.8-1.45,7.63-2.84,11.4-4.38,9-3.68,16.8-9,22.29-17.28h0c6.64-13.25,7.34-26.49-.67-39.4-3.44-5.54-9-8.92-14.74-11.73-17.83-8.66-36.38-9.36-55.35-4.8-9.75,2.34-19.59,4.29-29.54,2.09-15.87-3.51-22.24-22.44-11.12-34.21,13.28-14,27.41-27.27,41.15-40.87,5.22-5.17,10.36-10.41,15.54-15.62h0c-14.23,0-28.45,0-42.68-.16a88.48,88.48,0,0,1-10.79-.73,18.34,18.34,0,0,1-14.53-10.41h0a32.29,32.29,0,0,1-2.35-19.3c2.06-10.39,9.59-16.7,21.33-17.21,6.34-.28,12.7-.05,19.05-.05h69c10.95,0,22-1,32.79,1.42,8.27,1.88,15.24,5.61,17.63,14.68,1.57,5.92.08,11.38-2.72,16.54-5,9.24-12.62,16.34-20,23.58C491.93,201.05,480,211.85,467.5,223c7.09.88,13.7,1.75,19.86,4.19,28.5,11.31,49.24,30.21,55.06,61.32C546.83,312.09,544.75,335.41,531.47,356.54Z"/><path class="cls-2" d="M337.41,562.47c0-.5.1-1,.14-1.48,0-.13,0-.27.06-.4-5.87,5.74-12.29,10.43-20.74,12.06-23.49,4.52-41.3-11.37-44.93-28.1-5.16-23.81,13.7-42.5,31.71-44.26,13.63-1.34,24.85,2.6,34,12.44a.29.29,0,0,1,0-.09,59.06,59.06,0,0,1-.23-6.37q0-70,0-139.95c0-2.09,0-4.16.22-6.23-2.67,3.31-5,6.94-8.74,9.23h0c-6.59,7.23-14.69,12.51-23,17.47A130,130,0,0,1,286,396.18c-19.31,7.34-39.38,9.76-59.82,8.32-30.56-2.15-57.42-13.41-80.27-34-19-17.13-33.28-37.3-40.76-61.94-5.76-18.95-7-38.29-5-58A126.59,126.59,0,0,1,122.64,190c.28-.41.64-.76,1-1.14h0a133.87,133.87,0,0,1,39.59-38.27h0A105.09,105.09,0,0,1,195,135.33c29.74-8.92,59.47-8.53,88.82,1.63a123.72,123.72,0,0,1,53.75,36.6c-.14-1.83-.24-3.64-.24-5.47q0-80.53,0-161.07c0-2.31-.52-4.78,1.23-6.8h0c-1.49,0-3-.14-4.48-.14q-95.1,0-190.19,0c-18.7,0-37.41-.55-56.11.68-14.74,1-29.15,3.37-43,8.52C28.47,15.37,16.5,26,9.54,42.24,2.85,57.89,1,74.35.12,91.05c-.44,8.72.47,17.45.45,26.16-.26,107.56.61,215.12-.4,322.68-.32,34.68.43,69.36.36,104,0,10.71-.63,21.39.09,32.11.88,13.13,2.93,26,7.54,38.3,6.06,16.21,16.65,28.08,32.82,34.85,19.44,8.14,40,10.59,60.66,10.68,77.5.35,155,.14,232.5.14,1.5,0,3-.1,4.49-.15h0c-1.23-1.15-1.24-2.69-1.24-4.18C337.36,624.61,337.31,593.54,337.41,562.47Zm-157.18-31c-1.93,7.59-8.53,12.69-16.74,13.14l-3.76.18,14.53,23.5c.52.85,1.08,1.68,1.61,2.52,1.43,2.26,1.21,4.45-1,5.9s-4.53,1.22-6.11-1.31q-6.14-9.84-12.26-19.68c-2.3-3.71-4.5-7.49-6.88-11.14-1.32-2-2-4.06-.91-6.31s3.31-1.85,5.27-1.88c2.5,0,5,0,7.49,0,6.3-.15,9.76-3.26,11.06-9.49a19.57,19.57,0,0,0-1.06-11c-1.59-4.32-4.65-6.37-9.12-6.38-12.61,0-25.21.06-37.82-.07-2.65,0-3.35.79-3.34,3.38.11,18.85.06,37.7.06,56.54,0,1.75.15,3.48-1.24,4.92a4.12,4.12,0,0,1-4.44,1.14,3.36,3.36,0,0,1-2.53-3.33c0-.74,0-1.49,0-2.24q0-31.27,0-62.53c0-5.14.91-6,6.13-6q22.47,0,44.93,0a15.64,15.64,0,0,1,15,10.36A32.45,32.45,0,0,1,180.23,531.43Zm78.17,41.18c-12.21.74-24.44.21-36.67.26-2.45,0-4.43-1.23-4.44-4s1.41-3.92,4.19-4.15c8.48-.69,17-.12,25.44-.35,1.47,0,3,.31,4.84-.53l-25.48-50.46c-4.79,9.16-9.17,17.51-13.53,25.88-5.59,10.72-11.19,21.43-16.71,32.18-1.39,2.72-3.29,4.34-6.23,2.79s-2.38-3.83-1-6.39q16.89-32.31,33.62-64.69c.88-1.7,1.85-2.77,4-2.77a4.14,4.14,0,0,1,4.11,2.57C241,524,251.68,545,262.22,566,264.14,569.87,262.73,572.34,258.4,572.61Z"/><path class="cls-2" d="M338.58,559.62l-1,1c0,.13-.05.27-.06.4,0,.49-.14,1-.14,1.48-.1,31.07-.05,62.14,0,93.21,0,1.49,0,3,1.24,4.18q0-50.11-.05-100.24Z"/><path class="cls-2" d="M337.37,7q0,80.54,0,161.07c0,1.83.1,3.64.24,5.47l1,1.13h0q0-87.24,0-174.47C336.85,2.24,337.37,4.71,337.37,7Z"/><path class="cls-2" d="M337.57,360.09c-.18,2.07-.22,4.14-.22,6.23q0,70,0,140a59.06,59.06,0,0,0,.23,6.37.29.29,0,0,0,0,.09c.33.37.68.72,1,1.1h0l0-155h0C338.23,359.28,337.9,359.68,337.57,360.09Z"/><path class="cls-2" d="M299.07,203.63c-8.11-7.09-16.63-13.35-26.47-17.87-13.4-6.16-27.5-7.29-41.94-6.79-12.41.44-24,4-35,9.33h0c-8.13,5.28-16.11,10.74-22.87,17.81-5.43,5.69-9.55,12.33-14,18.73A93.58,93.58,0,0,0,148.4,269.1c.5,45.87,37.71,81,76,85.43,12.22,1.42,24.35,1.28,36.28-2.2a11,11,0,0,1,2.23-.2h0c14.87-4.61,27.23-13.28,38.46-23.78a11.76,11.76,0,0,1,4.93-3.16h0a22.49,22.49,0,0,1,29.84.77c.49.47,1,.92,1.49,1.37,0,0,0,0,0-.05a35.31,35.31,0,0,1-.25-5.24V207.47c0-1.63,0-3.25.18-4.86,0-.12,0-.24,0-.36-3.11,2.8-6.24,5.59-10.07,7.39C316.53,214.82,307.27,210.8,299.07,203.63Z"/><path class="cls-2" d="M337.54,202.61c-.16,1.61-.18,3.23-.18,4.86V322a35.31,35.31,0,0,0,.25,5.24s0,0,0,.05l1,.88h0q0-18.15,0-36.29,0-45.26-.09-90.52l-.94.85C337.55,202.37,337.54,202.49,337.54,202.61Z"/><path class="cls-3" d="M487.36,227.14c-6.16-2.44-12.77-3.31-19.86-4.19,12.53-11.1,24.43-21.9,35.88-33.16,7.37-7.24,15-14.34,20-23.58,2.8-5.16,4.29-10.62,2.72-16.54-2.39-9.07-9.36-12.8-17.63-14.68-10.82-2.44-21.84-1.4-32.79-1.42q-18,18.18-36.07,36.39c-3.19,3.24-6.14,6.73-9.55,10.49l6.61.36c.06,0,.16.19.15.28a1.19,1.19,0,0,1-.18.33h0c-5.18,5.21-10.32,10.45-15.54,15.62-13.74,13.6-27.87,26.82-41.15,40.87-11.12,11.77-4.75,30.7,11.12,34.21,9.95,2.2,19.79.25,29.54-2.09,19-4.56,37.52-3.86,55.35,4.8,5.78,2.81,11.3,6.19,14.74,11.73,8,12.91,7.31,26.15.67,39.4h0c2.26,5.05,6.4,8.7,9.73,12.93,7.33,9.32,15,18.37,22.5,27.53h0a45.49,45.49,0,0,0,7.88-9.88c13.28-21.13,15.36-44.45,10.95-68.08C536.6,257.35,515.86,238.45,487.36,227.14Zm-60,20.33c-5.59,5.66-10.61,11.84-17.56,16.08-11.07,6.75-21.76,2.34-24.45-10.29-.82-3.84.68-7.15,2.42-10.3a31.69,31.69,0,0,1,6.77-8.41c10.63-9.46,20.19-20,30.55-29.77,12.72-12,24.79-24.61,37.46-36.63,7.7-7.3,15.16-14.82,22.74-22.23,3.78-3.71,8.44-5.72,15.28-5.71a15.56,15.56,0,0,1,11.91,8.13c3.12,5.55.43,10.42-2.65,14.9-4.33,6.3-10.12,11.35-15.43,16.76C472.19,202.64,449.64,224.93,427.34,247.47Z"/><path class="cls-3" d="M335.1,172.2a134,134,0,0,0-32.7-25.87,127.47,127.47,0,0,0-44.84-14.77c-27-3.74-53.16-.62-78.13,10.78A99.41,99.41,0,0,0,164.14,151l-.42.28,31.38,36.48.63-.4c12.12-6.09,24.83-9.45,38.53-9.24,10.38.15,20.71.1,30.66,3.7,11.25,4.07,21.69,9.48,30.58,17.64a66,66,0,0,0,9.79,7.5c9.54,5.88,18.18,5.34,27-1.54,1.71-1.33,3.13-3.18,5.32-3.79a8.93,8.93,0,0,1,1.42-3.07c4.22-6.44,3.9-13,.55-19.68a19.47,19.47,0,0,1-1.87-4.23C336.52,174.28,335.9,173.06,335.1,172.2Zm-7.52,22.73c-5.1,5.57-12.7,6.82-18.69,3.41-2.89-1.64-4.92-4.18-7.22-6.42a92.31,92.31,0,0,0-46.19-24.47,77.87,77.87,0,0,0-17.4-1.77A33.9,33.9,0,0,1,226,163.94c-5-1.78-7.69-5.3-7.93-10.64-.26-5.71,1.63-10.32,7-12.9a26.17,26.17,0,0,1,12.7-2.31c30.7.28,57.77,10.13,80.95,30.42a80.16,80.16,0,0,1,9.58,9.39C332.89,183.56,331.69,190.43,327.58,194.93Z"/><path class="cls-3" d="M337.75,174.6a19.47,19.47,0,0,0,1.87,4.23c3.35,6.66,3.67,13.24-.55,19.68a8.93,8.93,0,0,0-1.42,3.07,5.82,5.82,0,0,1,.85-.18c3.37-4.76,5.59-9.81,4.61-15.87-.65-4-2.71-7.36-4.53-10.84h0A2.43,2.43,0,0,1,337.75,174.6Z"/><path class="cls-3" d="M163.72,151.23l.42-.28a99.41,99.41,0,0,1,15.29-8.61c25-11.4,51.11-14.52,78.13-10.78a127.47,127.47,0,0,1,44.84,14.77,134,134,0,0,1,32.7,25.87c.8.86,1.42,2.08,2.65,2.4a6.39,6.39,0,0,1-.16-.91.57.57,0,0,0,0-.13A123.72,123.72,0,0,0,283.83,137c-29.35-10.16-59.08-10.55-88.82-1.63a105.09,105.09,0,0,0-31.83,15.27h0Z"/><path class="cls-3" d="M337.58,173.56a.57.57,0,0,1,0,.13,6.39,6.39,0,0,0,.16.91,2.43,2.43,0,0,0,.83.09h0Z"/><path class="cls-3" d="M305.29,206.91a66,66,0,0,1-9.79-7.5c-8.89-8.16-19.33-13.57-30.58-17.64-10-3.6-20.28-3.55-30.66-3.7-13.7-.21-26.41,3.15-38.53,9.24l-.63.4.51.59h0c11.08-5.37,22.64-8.89,35-9.33,14.44-.5,28.54.63,41.94,6.79,9.84,4.52,18.36,10.78,26.47,17.87s17.46,11.19,28.42,6c3.83-1.8,7-4.59,10.07-7.39,0-.23.05-.46.09-.67-2.19.61-3.61,2.46-5.32,3.79C323.47,212.25,314.83,212.79,305.29,206.91Z"/><path class="cls-3" d="M337.56,202.25l.94-.85a5.82,5.82,0,0,0-.85.18C337.61,201.79,337.58,202,337.56,202.25Z"/><path class="cls-4" d="M431.93,181c-.7-.09-1.61.29-2-.6a1.91,1.91,0,0,1,.74-2c2.94-2.89,5.38-6.24,8.28-9.16q16.36-16.44,32.8-32.84a11.56,11.56,0,0,1,3.89-2.84h-69c-10.41,10.87-20.84,21.72-32.08,31.74-1.89,1.69-3.11,4.28-5.95,4.82a18.34,18.34,0,0,0,14.53,10.41,88.48,88.48,0,0,0,10.79.73c14.23.12,28.45.12,42.68.16C435.12,180.58,433.49,181.23,431.93,181Z"/><path class="cls-4" d="M436.81,181.09c0-.09-.09-.27-.15-.28l-6.61-.36c3.41-3.76,6.36-7.25,9.55-10.49q18-18.26,36.07-36.39a11.56,11.56,0,0,0-3.89,2.84q-16.39,16.44-32.8,32.84c-2.9,2.92-5.34,6.27-8.28,9.16a1.91,1.91,0,0,0-.74,2c.36.89,1.27.51,2,.6,1.56.22,3.19-.43,4.7.41h0A1.19,1.19,0,0,0,436.81,181.09Z"/><path class="cls-3" d="M457.67,347.62h0c-1.86.13-3.73.17-5.58.4-22.8,2.84-41.87-3.46-55.74-22.6-6.93-9.56-14-11.66-24.14-5.91C356.74,328.29,350.44,339,360,357.7c9.64,18.94,25.76,29.63,45.82,34.81,18.31,4.74,37,4.7,55.65,2.83,7.18-.72,14.26-2,20.89-5Q470.73,370.66,459.12,351A7.37,7.37,0,0,1,457.67,347.62Zm-1.48,23.59c-.59,9.48-6.53,18.49-20.51,17.74-17-1.19-33.18-4.91-47.18-15.27A56.27,56.27,0,0,1,372,354.24c-4.23-8.1-1.75-16.57,6-21.39,5-3.05,11.21-2,16.34,2.88,3.17,3,5.72,6.49,9.12,9.3a54.39,54.39,0,0,0,31.28,12.54c5,.4,10.21.36,14.88,2.87C454,362.76,456.51,366.12,456.19,371.21Z"/><path class="cls-2" d="M335,523.35c-9.61-17.59-32.3-18.61-44.6-9a28.18,28.18,0,0,0-9.6,31.07c3.69,11.21,14.92,19.2,26.5,19.64,11,.42,19.56-3.92,26.09-12.46,1.49-1.93,3.17-2.16,5.06-2.13l-.22-.27c-1.47-7.52-.82-15.08-.41-22.62a2.71,2.71,0,0,1,.49-.86C336.61,526.21,335.8,524.83,335,523.35Z"/><path class="cls-2" d="M337.81,527.58c-.41,7.54-1.06,15.1.41,22.62l.22.27.85,0h0c-.83-1.21-.7-2.59-.7-4q0-9.85,0-19.71l-.31-.1A2.71,2.71,0,0,0,337.81,527.58Z"/><path class="cls-5" d="M519.23,362.75c-8.48-10.61-17.13-21.1-25.65-31.69-1.14-1.41-3.2-2.66-2.22-5.1-5.49,8.26-13.26,13.6-22.29,17.28-3.77,1.54-7.6,2.93-11.4,4.38,3.42,4.15,5.88,8.91,8.61,13.5,4.9,8.25,9.93,16.42,14.7,24.75.77,1.36,2,2.63,1.36,4.45,2.79,0,5.29-1.16,7.81-2.17,12.58-5,24.09-11.72,33.44-21.73C521.31,366.2,520.4,364.21,519.23,362.75Z"/><path class="cls-5" d="M501.09,338.89c-3.33-4.23-7.47-7.88-9.73-12.93h0c-1,2.44,1.08,3.69,2.22,5.1,8.52,10.59,17.17,21.08,25.65,31.69,1.17,1.46,2.08,3.45,4.36,3.67h0C516.07,357.26,508.42,348.21,501.09,338.89Z"/><path class="cls-5" d="M481,385.87c-4.77-8.33-9.8-16.5-14.7-24.75-2.73-4.59-5.19-9.35-8.61-13.5h0a7.37,7.37,0,0,0,1.45,3.37q11.63,19.65,23.22,39.33C483,388.5,481.75,387.23,481,385.87Z"/><path class="cls-3" d="M447.77,502c-2.86.72-2.84,3.09-2.84,5.38v58.6c-1-1.2-1.41-1.64-1.77-2.1-14.25-18.14-28.69-36.12-42.59-54.52-3.59-4.75-7.44-6.34-12.95-5.78-4.54.46-5.6,1.4-5.6,6q0,29.57,0,59.14a20.89,20.89,0,0,0,0,2.24,3.74,3.74,0,0,0,3.88,3.74c2.35.1,3.69-1.31,4.23-3.44a12.3,12.3,0,0,0,.09-3c0-17.22,0-34.43,0-51.65,0-1.52-.86-3.9.67-4.4,1.83-.6,2.65,1.86,3.66,3.15,14.27,18.12,28.58,36.2,42.63,54.49,2.68,3.5,5.52,4.92,9.79,4.62,4.74-.32,6.12-1.51,6.13-6.39q0-18.52,0-37.06c0-8.11.05-16.22,0-24.33C453.12,502.86,451.1,501.11,447.77,502Z"/><path class="cls-3" d="M538.57,545.41c-2.66,1.25-4,3.64-4.87,6.19-.72,2.15-1.83,3.09-4,2.84h0c-6.74,7.46-14.95,10.94-25.18,10.64-18.82-.56-32.75-21.13-25.55-38.49,4.31-10.38,12.06-16.67,23.36-18,13.12-1.47,23.48,3,30.25,14.75,1.84,3.2,4.41,4.34,6.59,2.71,2.67-2,2.1-4.52.61-7-8.61-14.23-21.23-20.35-37.76-18.81-26.83,2.5-42.24,32.64-27.75,55.29,10,15.66,24.11,19.76,39.68,17.09,12.33-2.11,21.62-9.26,26.75-21.06C541.82,549,542.18,546.5,538.57,545.41Z"/><path class="cls-3" d="M335.42,511.8c-10.79-10.28-23.45-13.49-37.62-9.17-13.5,4.11-22.25,13.43-24.95,27.27-2.6,13.32,1.43,24.79,12.12,33.73,12,10,25.23,10.8,39.3,5.57,3.91-1.46,7.09-4.1,10.06-7,1-1,1.87-2.46,3.48-2.59a4.6,4.6,0,0,1,.86-1.71c2.09-2.53,1.72-4.86,0-7.13-3.4,1.42-5.64,4.27-8.22,6.76a31.62,31.62,0,0,1-34.06,6.08c-11.61-5.16-18.35-16-18-29,.41-13.87,13.73-26.88,27.65-26.87,4.33,0,8.67-.48,13,1,7.06,2.43,12.24,7.06,16.23,13.16,1,1.58,2.32,3,3.21,4.64a2.82,2.82,0,0,1,.45-.38c4.22-2.76,4.38-3.59,1.72-7.76-.95-1.49-2.23-2.81-2.78-4.52C336.66,513.78,336.17,512.52,335.42,511.8Z"/><path class="cls-3" d="M337.85,513.89c.55,1.71,1.83,3,2.78,4.52,2.66,4.17,2.5,5-1.72,7.76a2.82,2.82,0,0,0-.45.38,2.34,2.34,0,0,1,.15.27c4.89-.78,6.15-3.23,3.71-7.45-1.11-1.92-2.47-3.7-3.71-5.54h0A1.87,1.87,0,0,1,337.85,513.89Z"/><path class="cls-3" d="M338.67,557.88a4.6,4.6,0,0,0-.86,1.71,3.39,3.39,0,0,1,.77,0h0c1.81-2.92,5.1-5.72.71-9.13h0c-.22.08-.42.18-.63.26C340.39,553,340.76,555.35,338.67,557.88Z"/><path class="cls-3" d="M334.33,562.18c-3,2.92-6.15,5.56-10.06,7-14.07,5.23-27.28,4.46-39.3-5.57-10.69-8.94-14.72-20.41-12.12-33.73,2.7-13.84,11.45-23.16,24.95-27.27,14.17-4.32,26.83-1.11,37.62,9.17.75.72,1.24,2,2.43,2.09a5.3,5.3,0,0,1-.25-1.16c-9.1-9.84-20.32-13.78-34-12.44-18,1.76-36.87,20.45-31.71,44.26,3.63,16.73,21.44,32.62,44.93,28.1,8.45-1.63,14.87-6.32,20.74-12.06a6.81,6.81,0,0,1,.2-1C336.2,559.72,335.35,561.17,334.33,562.18Z"/><path class="cls-3" d="M337.85,513.89a1.87,1.87,0,0,0,.76-.06c-.33-.38-.68-.73-1-1.1A5.3,5.3,0,0,0,337.85,513.89Z"/><path class="cls-3" d="M337.81,559.59a6.81,6.81,0,0,0-.2,1l1-1h0A3.39,3.39,0,0,0,337.81,559.59Z"/><path class="cls-3" d="M319,508.75c-4.29-1.48-8.63-1-13-1-13.92,0-27.24,13-27.65,26.87-.38,13,6.36,23.81,18,29a31.62,31.62,0,0,0,34.06-6.08c2.58-2.49,4.82-5.34,8.22-6.76l-.22-.28c-1.89,0-3.57.2-5.06,2.13-6.53,8.54-15,12.88-26.09,12.46-11.58-.44-22.81-8.43-26.5-19.64a28.18,28.18,0,0,1,9.6-31.07c12.3-9.61,35-8.59,44.6,9,.81,1.48,1.62,2.86,3.31,3.37l.16-.17c-.89-1.67-2.18-3.06-3.21-4.64C331.26,515.81,326.08,511.18,319,508.75Z"/><path class="cls-3" d="M338.3,526.72l.31.1a2.34,2.34,0,0,0-.15-.27Z"/><path class="cls-3" d="M338.44,550.47l.22.28c.21-.08.41-.18.63-.26Z"/><path class="cls-3" d="M336,327.26c-10.34-8-18.25-8.48-29.13-1.63a10.38,10.38,0,0,1,1.61,3q10.1,20.07,20.1,40.16a62.43,62.43,0,0,0,7.26-7.81c.54-.73,1-1.73,1.95-2a21.3,21.3,0,0,1,2.09-4.8c4.09-8,4.5-15.81-.81-23.46a8.45,8.45,0,0,1-1.19-2.36A3.76,3.76,0,0,1,336,327.26Z"/><path class="cls-3" d="M339,330.68c5.31,7.65,4.9,15.48.81,23.46a21.3,21.3,0,0,0-2.09,4.8,2,2,0,0,1,.83-.06h0c6.12-10.22,8.47-20.45,0-30.67a1.71,1.71,0,0,1-.75.11A8.45,8.45,0,0,0,339,330.68Z"/><path class="cls-3" d="M337.75,358.94c-1,.27-1.41,1.27-1.95,2a62.43,62.43,0,0,1-7.26,7.81l.29.57h0c3.75-2.29,6.07-5.92,8.74-9.23a.49.49,0,0,1,0-.12A7.14,7.14,0,0,1,337.75,358.94Z"/><path class="cls-3" d="M337.75,358.94a7.14,7.14,0,0,0-.17,1,.49.49,0,0,0,0,.12c.33-.41.66-.81,1-1.21h0A2,2,0,0,0,337.75,358.94Z"/><path class="cls-3" d="M306.29,325.19h0a3.34,3.34,0,0,1,.54.44c10.88-6.85,18.79-6.4,29.13,1.63a3.76,3.76,0,0,0,1.88,1.06,5.46,5.46,0,0,1-.22-1c-.5-.45-1-.9-1.49-1.37A22.49,22.49,0,0,0,306.29,325.19Z"/><path class="cls-3" d="M337.62,327.33a5.46,5.46,0,0,0,.22,1,1.71,1.71,0,0,0,.75-.11h0Z"/><path class="cls-3" d="M392.58,146.75c3.4-3.45,6.86-6.84,10.26-10.28a12.92,12.92,0,0,1,3.82-2.91c-6.35,0-12.71-.23-19.05.05-11.74.51-19.27,6.82-21.33,17.21a32.29,32.29,0,0,0,2.35,19.3h0C376.75,162.47,384.76,154.71,392.58,146.75Z"/><path class="cls-3" d="M374.58,165.3c11.24-10,21.67-20.87,32.08-31.74a12.92,12.92,0,0,0-3.82,2.91c-3.4,3.44-6.86,6.83-10.26,10.28-7.82,8-15.83,15.72-23.95,23.37h0C371.47,169.58,372.69,167,374.58,165.3Z"/><path class="cls-6" d="M366.06,509.1a31.45,31.45,0,0,0-.47-5.58c-.41-2.18-2-3-4.15-2.95a3.31,3.31,0,0,0-3.52,3.17,43.51,43.51,0,0,0-.39,5.59q0,27.88,0,55.78c0,1.62.21,3.23.31,4.85a3.69,3.69,0,0,0,3.47,3.75c2.19.29,3.59-1.07,4.27-2.92a12.09,12.09,0,0,0,.49-4c0-9.73,0-19.47,0-29.2C366.08,528.06,366.1,518.58,366.06,509.1Z"/><path class="cls-3" d="M533.8,549.5c1.08-1.86,1.74-4.42,4.77-4.09.07-.46,0-1.07.23-1.37,1.38-1.56,2.52-3.06,1.32-5.31s-3-2.31-5.07-2.31q-14,0-28,0c-2.95,0-5.3.72-5.26,4.23s2.54,4,5.41,4c9.43,0,18.86,0,28.64,0-3.23,2.79-3.53,7-6.18,9.77h0C532,553.6,532.69,551.4,533.8,549.5Z"/><path class="cls-3" d="M533.7,551.6c.85-2.55,2.21-4.94,4.87-6.19-3-.33-3.69,2.23-4.77,4.09s-1.76,4.1-4.12,4.94C531.87,554.69,533,553.75,533.7,551.6Z"/><path class="cls-3" d="M263.22,352.74l-.73.21c-22.57,5.88-44.88,5.18-65.56-5.91-28.23-15.14-45.64-38.39-49-71.12a87.88,87.88,0,0,1,9.89-51l.41-.6L130.8,195.88a70.39,70.39,0,0,0-6.56-6.48l-.27.39c-11.94,16.93-19.62,35.6-22.26,56.14C96.5,286.44,105,323.29,132,354.82c17,19.9,37.57,34.94,62.82,42.81a137.58,137.58,0,0,0,36.41,6,144.66,144.66,0,0,0,54-8.15l.44-.18c-1.15-3.21-3.13-6-4.69-9C275.19,375,269.18,363.9,263.22,352.74Zm-10.56,37.44a20.07,20.07,0,0,1-9.88,3.11c-22.35.59-44.07-2.61-63.93-13.3-34.24-18.41-57.47-45.94-66.8-84.19a128.93,128.93,0,0,1-3.35-32.19c.12-9.91,6.48-16.14,15.63-15.53a8,8,0,0,1,7.36,4.9c2,4.42,1.88,9,1.86,13.78A89.05,89.05,0,0,0,137.72,295c9.31,28.51,27.82,49.14,54.61,62.18a82,82,0,0,0,41.12,8.46c4.94.42,9.79-.48,14.63.62,5.46,1.24,9,4.73,10.16,10.59A12.57,12.57,0,0,1,252.66,390.18Z"/><path class="cls-3" d="M285.28,395.48a144.66,144.66,0,0,1-54,8.15,137.58,137.58,0,0,1-36.41-6c-25.25-7.87-45.78-22.91-62.82-42.81-27-31.53-35.53-68.38-30.32-108.89,2.64-20.54,10.32-39.21,22.26-56.14l.27-.39c-.22-.17-.42-.36-.65-.53h0c-.31.38-.67.73-1,1.14a126.59,126.59,0,0,0-22.44,60.55c-2,19.68-.78,39,5,58,7.48,24.64,21.79,44.81,40.76,61.94,22.85,20.62,49.71,31.88,80.27,34,20.44,1.44,40.51-1,59.82-8.32-.09-.29-.2-.58-.31-.88Z"/><path class="cls-3" d="M157.84,224.94a87.88,87.88,0,0,0-9.89,51c3.34,32.73,20.75,56,49,71.12,20.68,11.09,43,11.79,65.56,5.91l.73-.21c-.1-.21-.21-.41-.32-.61h0a11,11,0,0,0-2.23.2c-11.93,3.48-24.06,3.62-36.28,2.2-38.28-4.42-75.49-39.56-76-85.43a93.58,93.58,0,0,1,10.34-44.26l-.49-.5Z"/><path class="cls-4" d="M130.1,193.93c5,5.93,10.67,11.2,16.15,16.64,4,4,7.33,8.5,11.45,12.34a3.49,3.49,0,0,1,.8,1.07c3.15-4.58,5.91-9.42,9.44-13.79,7.46-9.21,16.79-16,26.68-22.18-2.44-1-3.52-3.48-5.13-5.28-7.82-8.71-15.22-17.78-23-26.54-1.24-1.4-2.87-2.67-3.24-4.66A137.46,137.46,0,0,0,124.51,189C127.18,189.63,128.55,192.08,130.1,193.93Z"/><path class="cls-4" d="M163.25,151.53a4.62,4.62,0,0,1-.07-.93,133.87,133.87,0,0,0-39.59,38.27,5.21,5.21,0,0,1,.92.14A137.46,137.46,0,0,1,163.25,151.53Z"/><path class="cls-4" d="M167.94,210.19c-3.53,4.37-6.29,9.21-9.44,13.79a2.6,2.6,0,0,1,.24.86c4.45-6.4,8.57-13,14-18.73,6.76-7.07,14.74-12.53,22.87-17.81a5,5,0,0,1-1-.29C184.73,194.19,175.4,201,167.94,210.19Z"/><path class="cls-4" d="M189.49,182.73c1.61,1.8,2.69,4.31,5.13,5.28l.48-.3-31.38-36.48-.47.3c.37,2,2,3.26,3.24,4.66C174.27,165,181.67,174,189.49,182.73Z"/><path class="cls-4" d="M163.72,151.23l-.54-.63h0a4.62,4.62,0,0,0,.07.93Z"/><path class="cls-4" d="M195.61,188.3h0l-.51-.59-.48.3A5,5,0,0,0,195.61,188.3Z"/><path class="cls-4" d="M130.8,195.88l27.45,28.46.25-.36a3.49,3.49,0,0,0-.8-1.07c-4.12-3.84-7.46-8.38-11.45-12.34-5.48-5.44-11.15-10.71-16.15-16.64-1.55-1.85-2.92-4.3-5.59-4.92l-.27.39A70.39,70.39,0,0,1,130.8,195.88Z"/><path class="cls-4" d="M124.24,189.4l.27-.39a5.21,5.21,0,0,0-.92-.14h0C123.82,189,124,189.23,124.24,189.4Z"/><path class="cls-4" d="M158.25,224.34l.49.5a2.6,2.6,0,0,0-.24-.86Z"/><path class="cls-4" d="M326.44,366.65C320,353.79,313.58,340.87,307.11,328a7,7,0,0,1-.8-2,52.71,52.71,0,0,0-8.67,6.71c-9.74,9-20.68,16-33.43,19.78a6.17,6.17,0,0,1,.93,1.71c7.07,13,13.81,26.26,20.85,39.32a4.09,4.09,0,0,1,.58,1.49,129.13,129.13,0,0,0,41.65-25.9A5.1,5.1,0,0,1,326.44,366.65Z"/><path class="cls-4" d="M286.57,395a1.43,1.43,0,0,1-.54,1.21,130,130,0,0,0,19.81-9.39c8.3-5,16.4-10.24,23-17.47h0a2.6,2.6,0,0,1-.61-.25A129.13,129.13,0,0,1,286.57,395Z"/><path class="cls-4" d="M264.21,352.45c12.75-3.81,23.69-10.74,33.43-19.78a52.71,52.71,0,0,1,8.67-6.71,2.83,2.83,0,0,1,0-.77,11.76,11.76,0,0,0-4.93,3.16c-11.23,10.5-23.59,19.17-38.46,23.78A1.46,1.46,0,0,1,264.21,352.45Z"/><path class="cls-4" d="M306.83,325.63l0,0-.48.31a7,7,0,0,0,.8,2c6.47,12.87,12.84,25.79,19.33,38.65a5.1,5.1,0,0,0,1.78,2.42l0,0,.3-.3q-10-20.08-20.1-40.16A10.38,10.38,0,0,0,306.83,325.63Z"/><path class="cls-4" d="M328.24,369.05l0,0a2.6,2.6,0,0,0,.61.25l-.29-.57Z"/><path class="cls-4" d="M306.31,326l.48-.31,0,0a3.34,3.34,0,0,0-.54-.44h0A2.83,2.83,0,0,0,306.31,326Z"/><path class="cls-4" d="M265.14,354.16a6.17,6.17,0,0,0-.93-1.71l-1,.29c6,11.16,12,22.3,17.81,33.53,1.56,3,3.54,5.82,4.69,9,.29-.1.57-.22.85-.33a4.09,4.09,0,0,0-.58-1.49C279,380.42,272.21,367.21,265.14,354.16Z"/><path class="cls-4" d="M286.57,395c-.28.11-.56.23-.85.33.11.3.22.59.31.88A1.43,1.43,0,0,0,286.57,395Z"/><path class="cls-4" d="M263.22,352.74l1-.29a1.46,1.46,0,0,0-1.31-.32h0C263,352.33,263.12,352.53,263.22,352.74Z"/><path class="cls-3" d="M164.1,501.23q-22.46,0-44.93,0c-5.22,0-6.13.91-6.13,6q0,31.26,0,62.53c0,.75,0,1.5,0,2.24a3.36,3.36,0,0,0,2.53,3.33,4.12,4.12,0,0,0,4.44-1.14c1.39-1.44,1.24-3.17,1.24-4.92,0-18.84,0-37.69-.06-56.54,0-2.59.69-3.4,3.34-3.38,12.61.13,25.21.05,37.82.07,4.47,0,7.53,2.06,9.12,6.38a19.57,19.57,0,0,1,1.06,11c-1.3,6.23-4.76,9.34-11.06,9.49-2.49.06-5,0-7.49,0-2,0-4.17-.39-5.27,1.88s-.41,4.28.91,6.31c2.38,3.65,4.58,7.43,6.88,11.14q6.12,9.86,12.26,19.68c1.58,2.53,3.85,2.82,6.11,1.31s2.4-3.64,1-5.9c-.53-.84-1.09-1.67-1.61-2.52l-14.53-23.5,3.76-.18c8.21-.45,14.81-5.55,16.74-13.14a32.45,32.45,0,0,0-1.14-19.84A15.64,15.64,0,0,0,164.1,501.23Z"/><path class="cls-3" d="M230.46,502.91a4.14,4.14,0,0,0-4.11-2.57c-2.11,0-3.08,1.07-4,2.77q-16.75,32.37-33.62,64.69c-1.34,2.56-1.8,4.9,1,6.39s4.84-.07,6.23-2.79c5.52-10.75,11.12-21.46,16.71-32.18,4.36-8.37,8.74-16.72,13.53-25.88l25.48,50.46c-1.85.84-3.37.49-4.84.53-8.47.23-17-.34-25.44.35-2.78.23-4.21,1.48-4.19,4.15s2,4,4.44,4c12.23,0,24.46.48,36.67-.26,4.33-.27,5.74-2.74,3.82-6.58C251.68,545,241,524,230.46,502.91Z"/><path class="cls-7" d="M509.81,163.24c3.08-4.48,5.77-9.35,2.65-14.9a15.56,15.56,0,0,0-11.91-8.13c-6.84,0-11.5,2-15.28,5.71-7.58,7.41-15,14.93-22.74,22.23-12.67,12-24.74,24.66-37.46,36.63-10.36,9.74-19.92,20.31-30.55,29.77a31.69,31.69,0,0,0-6.77,8.41c-1.74,3.15-3.24,6.46-2.42,10.3,2.69,12.63,13.38,17,24.45,10.29,7-4.24,12-10.42,17.56-16.08,22.3-22.54,44.85-44.83,67-67.47C499.69,174.59,505.48,169.54,509.81,163.24ZM422.75,243.8c-4.27,4.35-8.05,9.17-13,12.87a24.41,24.41,0,0,1-5.87,3.23c-4.3,1.64-7.49,1-10.22-2a9.31,9.31,0,0,1-1.52-10.73,21.8,21.8,0,0,1,4.58-6.76c17.47-17.1,34.71-34.43,52.38-51.32,11.08-10.61,21.72-21.67,32.9-32.16,3.77-3.54,7.09-7.74,12.07-9.86a10.91,10.91,0,0,1,12.32,2.56,4.59,4.59,0,0,1,1.47,3.71c-.47,4.17-2.77,7.32-5.62,10.21q-24.58,24.88-49.15,49.79C443,223.5,432.8,233.57,422.75,243.8Z"/><path class="cls-7" d="M318.69,168.51c-23.18-20.29-50.25-30.14-80.95-30.42A26.17,26.17,0,0,0,225,140.4c-5.38,2.58-7.27,7.19-7,12.9.24,5.34,3,8.86,7.93,10.64a33.9,33.9,0,0,0,12.12,1.74,77.87,77.87,0,0,1,17.4,1.77,92.31,92.31,0,0,1,46.19,24.47c2.3,2.24,4.33,4.78,7.22,6.42,6,3.41,13.59,2.16,18.69-3.41,4.11-4.5,5.31-11.37.69-17A80.16,80.16,0,0,0,318.69,168.51Zm6,20.07c-1.39,3.81-4.56,5.68-9.07,5.64-2.95.36-5.08-1.43-7.16-3.56a99.9,99.9,0,0,0-50-28.31c-8.15-1.87-16.49-2.26-24.81-2.66-5.29-.25-9.12-2.78-9.68-6.56-.73-4.95,3-8.92,9-9.13,22.78-.77,44.27,3.92,64,15.67a118.08,118.08,0,0,1,25.43,20.1C324.91,182.42,325.92,185.24,324.71,188.58Z"/><path class="cls-7" d="M449.64,360.44c-4.67-2.51-9.86-2.47-14.88-2.87A54.39,54.39,0,0,1,403.48,345c-3.4-2.81-6-6.33-9.12-9.3-5.13-4.83-11.39-5.93-16.34-2.88-7.8,4.82-10.28,13.29-6,21.39a56.27,56.27,0,0,0,16.53,19.44c14,10.36,30.19,14.08,47.18,15.27,14,.75,19.92-8.26,20.51-17.74C456.51,366.12,454,362.76,449.64,360.44Zm-3.33,19.48c-3.24,2.62-5.15,3-14.75,3-15.7-1.15-32.85-5.69-46.14-19.63-3.76-4-7.16-8.31-8.84-13.68-1.31-4.15.38-9.44,3.54-11.34s7.46-1.14,10.86,2.28c5.61,5.67,11.08,11.45,18.24,15.31a64.71,64.71,0,0,0,26.29,7.57,61.14,61.14,0,0,1,8.13.95c3.24.69,6.68,1.89,7,5.71A11.19,11.19,0,0,1,446.31,379.92Z"/><path class="cls-7" d="M248.08,366.3c-4.84-1.1-9.69-.2-14.63-.62a82,82,0,0,1-41.12-8.46c-26.79-13-45.3-33.67-54.61-62.18a89.05,89.05,0,0,1-4.17-28.28c0-4.78.13-9.36-1.86-13.78a8,8,0,0,0-7.36-4.9c-9.15-.61-15.51,5.62-15.63,15.53a128.93,128.93,0,0,0,3.35,32.19c9.33,38.25,32.56,65.78,66.8,84.19,19.86,10.69,41.58,13.89,63.93,13.3a20.07,20.07,0,0,0,9.88-3.11,12.57,12.57,0,0,0,5.58-13.29C257.11,371,253.54,367.54,248.08,366.3Zm.62,19.48a12.1,12.1,0,0,1-5.31,1.64c-26.24,1.2-50.79-4.45-72.83-19-23.36-15.4-40.36-36.17-49.74-62.68a116.66,116.66,0,0,1-6.22-43.34,8.86,8.86,0,0,1,3.89-7.3c3.87-2.72,7.78-1.26,9.15,3.24.71,2.34.46,4.7.41,7.05-.49,22.12,5.15,42.44,18.27,60.36,17.47,23.87,40.19,39.64,69.87,44.54a98.86,98.86,0,0,0,18.95,1.29h10.11a6.82,6.82,0,0,1,7,5.15A7.49,7.49,0,0,1,248.7,385.78Z"/><path class="cls-3" d="M507.89,153.3a4.59,4.59,0,0,0-1.47-3.71A10.91,10.91,0,0,0,494.1,147c-5,2.12-8.3,6.32-12.07,9.86-11.18,10.49-21.82,21.55-32.9,32.16-17.67,16.89-34.91,34.22-52.38,51.32a21.8,21.8,0,0,0-4.58,6.76,9.31,9.31,0,0,0,1.52,10.73c2.73,3,5.92,3.68,10.22,2a24.41,24.41,0,0,0,5.87-3.23c4.92-3.7,8.7-8.52,13-12.87,10.05-10.23,20.28-20.3,30.37-30.5q24.61-24.86,49.15-49.79C505.12,160.62,507.42,157.47,507.89,153.3Z"/><path class="cls-3" d="M297,159.67c-19.73-11.75-41.22-16.44-64-15.67-6,.21-9.72,4.18-9,9.13.56,3.78,4.39,6.31,9.68,6.56,8.32.4,16.66.79,24.81,2.66a99.9,99.9,0,0,1,50,28.31c2.08,2.13,4.21,3.92,7.16,3.56,4.51,0,7.68-1.83,9.07-5.64,1.21-3.34.2-6.16-2.31-8.81A118.08,118.08,0,0,0,297,159.67Z"/><path class="cls-3" d="M443.64,364.37a61.14,61.14,0,0,0-8.13-.95,64.71,64.71,0,0,1-26.29-7.57c-7.16-3.86-12.63-9.64-18.24-15.31-3.4-3.42-7.65-4.2-10.86-2.28s-4.85,7.19-3.54,11.34c1.68,5.37,5.08,9.72,8.84,13.68,13.29,13.94,30.44,18.48,46.14,19.63,9.6,0,11.51-.37,14.75-3a11.19,11.19,0,0,0,4.35-9.84C450.32,366.26,446.88,365.06,443.64,364.37Z"/><path class="cls-3" d="M245.25,371.62H235.14a98.86,98.86,0,0,1-18.95-1.29c-29.68-4.9-52.4-20.67-69.87-44.54-13.12-17.92-18.76-38.24-18.27-60.36,0-2.35.3-4.71-.41-7.05-1.37-4.5-5.28-6-9.15-3.24a8.86,8.86,0,0,0-3.89,7.3,116.66,116.66,0,0,0,6.22,43.34c9.38,26.51,26.38,47.28,49.74,62.68,22,14.52,46.59,20.17,72.83,19a12.1,12.1,0,0,0,5.31-1.64,7.49,7.49,0,0,0,3.53-9A6.82,6.82,0,0,0,245.25,371.62Z"/><path class="cls-8" d="M742.83,490H808a6.93,6.93,0,0,0,7.75-5.6c11.76-31.62,23.77-63.08,35.52-94.7a7,7,0,0,1,7.86-5.59c16.58.3,33.21.35,49.84,0,5.13,0,6.52,1.89,7.39,6.26,6.57,31.21,13.4,62.31,19.81,93.52,1,4.77,2.62,6.16,7.5,6.16q65.54-.31,131.09,0a10.84,10.84,0,0,0,9.7-4.62q59.13-77,118.62-153.73l50.71-65.6c1.64-2.1,3.59-5.13,6.21-4.31s1.13,4.31,1.13,6.57V483.9c0,4.77,1.08,6.16,6,6.11q32-.36,64,0c4.78,0,5.7-1.44,5.65-5.91-.31-34.39-.31-68.78-.41-103.17-.1-48.09-.1-96.44-.36-144.74,0-23.87-10.57-37.93-31.77-43.78a98.84,98.84,0,0,0-40.3-1.6c-27.15,3.8-47.48,18.64-63.9,39.94q-65.74,85.35-131.86,170.61l-57.59,74.53c-6.73-32.64-13.14-64-19.76-95.31-.83-3.91,1.84-3.91,3.9-4.78,48.91-20.53,78.38-57.28,88.49-109,6.62-33.83-11.86-61-45.22-69.14a124.7,124.7,0,0,0-29.26-3.23H858a6.27,6.27,0,0,0-7,4.87c-7.18,19.76-14.73,39.42-22.17,59.08-2.46,6.47-2.46,6.47,4.26,6.52H996.85c10.88.87,14.07,5.13,11.45,15.91a45.63,45.63,0,0,1-45.07,35.57H855.44c-29.72,0-50.61,13.91-63.08,40.66-1.64,3.54-3.18,7.08-4.57,10.72q-22.23,58.72-44.3,117.6"/><path class="cls-8" d="M2145.07,194.25h-59.75a7.77,7.77,0,0,0-8.83,6c-11.39,30.8-23,61.59-34.65,92.39q-23.29,61.59-46.55,123.19a14,14,0,0,1-8.73,9.6c-3.74,1.23-5.8.61-6-3.85-.41-8.37-1.13-16.74-1.75-25.1-4.1-52-9.29-103.94-12.16-156-1.44-26.18-15-43.63-38-48.81a98.8,98.8,0,0,0-37.89-.77c-39.21,6.77-64.87,29.66-78.68,66.11-19.2,50.45-38.09,101-57.13,151.42l-30.8,81.71h68.58c3.85,0,4.21-2.57,5.13-5.13q22.95-60.72,45.84-121.6,17.85-47.33,35.67-94.65a14.2,14.2,0,0,1,10-10.62c3.08-.72,4.46,0,4.72,3.33,2.82,35.93,5.8,71.4,8.62,107.12,2.11,26.69,3.8,53.44,6.16,80.13A46.62,46.62,0,0,0,1948.79,493a99.65,99.65,0,0,0,39.16,0c37.26-7.4,61.59-30,74.84-64.83,28.95-76,57.48-152.14,86.33-228.21C2150.92,195.28,2150.15,194.15,2145.07,194.25Z"/><path class="cls-8" d="M2308.39,194.72a173.39,173.39,0,0,0-132.84,62,269.64,269.64,0,0,0-50,89.72c-8.16,23.31-14.06,47.07-12.22,71.86,2.06,28.18,15.1,49.23,41.07,61.6a107.09,107.09,0,0,0,34.28,9.08,616.12,616.12,0,0,0,68.89,1.13A123.14,123.14,0,0,0,2320.25,473c32.85-19.25,52.35-48.66,63.85-84.08a86.05,86.05,0,0,0,4.42-43.47c-4.42-22.64-22.79-37.58-48.61-39.47-27.46-2.06-55-.42-82.44-1a4.78,4.78,0,0,0-5.13,3.85c-7,18.79-14,37.52-21.2,56.46-1.59,4.11,0,4.36,3.34,4.36H2309c9.54.47,11.49,3,9.85,12.37a45.07,45.07,0,0,1-45.68,38.35h-46.2a74.31,74.31,0,0,1-24.22-3.65,21.5,21.5,0,0,1-15.86-21,47.73,47.73,0,0,1,0-8.62c5.59-36.29,18.47-69.45,43.47-97a76.21,76.21,0,0,1,42.55-23,155.48,155.48,0,0,1,31.42-2.77h107.07c2.51,0,5.13.87,6.62-2.72,8.21-22.23,16.63-44.35,25.3-67.19C2397.65,194.56,2352.94,194,2308.39,194.72Z"/><path class="cls-8" d="M1482.42,420.05a116.54,116.54,0,0,1-18.38-1.39c-18.89-3-27-13.09-24.58-32A187.73,187.73,0,0,1,1475.38,298a79.91,79.91,0,0,1,48.66-30.8,147.81,147.81,0,0,1,31.21-2.46h101.53c3.23,0,5.65,0,7-4q11.25-30.79,23.2-61.33c1.75-4.57,0-5.14-3.75-5.14H1565.72c-46.71.31-88.18,14.74-122.83,46.66a243.25,243.25,0,0,0-60,91.62c-11,28-19.66,56.46-17.14,87.26,2.2,27.21,15,47.53,40,59.54A115.18,115.18,0,0,0,1454.65,490c39.42.41,78.79,0,118,.3,3.65,0,4.88-1.48,6-4.51,6.06-16.48,12.32-32.85,18.53-49.33l6.16-16.32H1596Q1539.4,420,1482.42,420.05Z"/><path class="cls-8" d="M1786.54,194.36h-58.47a7.34,7.34,0,0,0-8.21,5.85q-51,135.66-102.3,271.22c-2.25,6.05-4.46,12.16-6.93,18.83h64.68a8.36,8.36,0,0,0,9.65-6.52c9.39-25.66,19.35-51.63,29.1-77.45q38.65-102.66,77.4-205.31C1794,194.36,1793.93,194.36,1786.54,194.36Z"/></g></g></svg>