<svg xmlns="http://www.w3.org/2000/svg" viewBox="0 0 127.48 177.92"><defs><style>.cls-1{fill:#ccc;}</style></defs><g id="Layer_2" data-name="Layer 2"><g id="Layer_1-2" data-name="Layer 1"><path class="cls-1" d="M120.57,97.75a60.16,60.16,0,0,0-7.48.06c-3.7.46-6.18-1-8.67-3.64-6.21-6.48-12.83-12.58-19-19.06C80.44,70,74.51,67.76,67.54,67.77q-18,0-35.94,0c-9.25,0-9,0-9.31,9.36C22.18,81,23.34,81.68,27,81.6c11.95-.28,23.91-.11,36.16-.11a17,17,0,0,1-.59,2.33c-7.09,16.23-14.22,32.44-21.25,48.7-1,2.38-2.55,3.09-5,3.06-8.65-.11-17.31,0-26,0-10.6,0-10.49,0-10.26,10.45.06,2.68.87,3.16,3.39,3.13,14.14-.14,28.29-.18,42.43,0,3.09,0,4.34-1.16,5.43-3.72,2.8-6.55,6-12.94,8.71-19.5,1.18-2.84,2.26-3,4.56-1.18C69.94,129,75.45,133,80.89,137a5.82,5.82,0,0,1,2.54,4c1.37,9,3.06,18,4.44,27,1.66,10.85,1.56,10.76,12.62,8.93,2.72-.45,3.57-1,3.05-4q-3.21-18.36-5.8-36.82a12.89,12.89,0,0,0-6.07-9.47c-7.25-5-14.13-10.5-21.25-15.68-2-1.47-2.85-2.7-1.52-5.29,2.49-4.86,4.65-9.9,6.7-15,1.24-3,2.37-2.92,4.43-.71,2.73,2.9,6.25,5.17,8.53,8.36,7.91,11.1,18.35,14.93,31.71,13.2,7.12-.92,7.21-.16,7.21-7.1C127.49,97.75,127.49,97.75,120.57,97.75Z"/><path class="cls-1" d="M96.78,59.14c16.93.13,30.58-13,30.67-29.4C127.54,13.63,113.93.06,97.63,0A30.18,30.18,0,0,0,67.39,29.36C67.14,45.16,80.81,59,96.78,59.14Zm1.07-45.57c8.37.15,14.63,6.88,14.58,15.68s-6.53,15.25-15,15.26a15.13,15.13,0,0,1-15.2-15.65A15.26,15.26,0,0,1,97.85,13.57Z"/></g></g></svg>