<svg xmlns="http://www.w3.org/2000/svg" viewBox="0 0 180.11 164.43"><defs><style>.cls-1{fill:#ccc;}</style></defs><g id="Layer_2" data-name="Layer 2"><g id="Layer_1-2" data-name="Layer 1"><path class="cls-1" d="M179,16.19c-2.09-2.52-7.47-.71-11.41-.75-10-.12-9.93,0-9.95,9.84,0,2.7.45,4.1,3.43,3.59s4.07.84,3.94,3.89a154.86,154.86,0,0,0,0,16c.25,3.91-1.22,4.66-4.84,4.64-23.48-.16-47-.08-70.44-.08s-47-.06-70.44.07c-3.33,0-4.8-.64-4.59-4.33a157.73,157.73,0,0,0,0-16c-.14-3.19.73-4.39,4.13-4.28,7.49.26,15,0,22.48.13,2.5,0,3.55-.55,3.49-3.3-.17-7.15,0-14.32-.07-21.48,0-1.63.3-3.66-2.19-3.65-4,0-8.52-1.43-11.7.62-2.38,1.52-.47,5.9-.83,9a8.28,8.28,0,0,0,0,2c.38,2.69-.86,3.41-3.39,3.37-7.5-.13-15,.11-22.48-.11C1,15.23,0,16,0,19.41c.13,42.13.06,84.27.1,126.41C.11,157,7.77,164.43,19,164.43H156.41c13.45,0,23.3-9.82,23.3-23.25q0-56.71,0-113.43C179.69,23.78,181,18.58,179,16.19ZM52.39,131.57c0,5.33-.11,10.66,0,16,.08,2.64-.91,3.45-3.47,3.42-9.82-.11-19.64-.09-29.45,0-3.46,0-4.65-1.61-4.61-4.94.11-10,.16-20,0-29.95-.06-3.21,1.18-3.92,4.09-3.88q14.71.21,29.45,0c3,0,4.18.75,4,3.92C52.22,121.25,52.39,126.41,52.39,131.57ZM49,97.79c-5.14-.15-10.3,0-15.45,0-5,0-10-.12-15,0-2.88.09-4.16-.59-4.06-3.85.24-7.47.2-15,0-22.44-.08-3.1,1-4,4-3.92q15.21.22,30.42,0c2.75,0,3.75.72,3.69,3.6q-.27,11.46,0,22.94C52.82,97,51.8,97.88,49,97.79Zm63.17,49.66c0,2.58-.79,3.5-3.42,3.48-12.65-.1-25.3-.12-37.95,0-3.07,0-3.54-1.32-3.51-3.93.1-10.32.13-20.65,0-31,0-2.85.89-3.82,3.71-3.75,6.32.14,12.65,0,19,0,6.16,0,12.32.1,18.48,0,2.75-.06,3.79.77,3.75,3.69C112.07,126.47,112.1,137,112.21,147.45Zm-3.43-49.77q-19-.14-37.91,0c-2.7,0-3.76-.7-3.67-3.66.22-7.47.23-15,0-22.44-.1-3.23,1.1-3.92,4-3.83,6.32.18,12.64,0,19,0s12.63.12,19,0c2.57-.07,3.46.66,3.4,3.33-.17,7.65-.19,15.3,0,23C112.61,97,111.47,97.7,108.78,97.68Zm55.93,44.6c-.11,5.16-3.36,8.38-8.5,8.48-8.48.16-17,0-25.46.09-2.8,0-3.32-1.25-3.26-3.66.12-5.16,0-10.32,0-15.48s.09-10.32,0-15.47c0-2.37.31-3.71,3.17-3.68,10.31.13,20.63.08,30.95,0,2.29,0,3.23.8,3.2,3.22C164.69,124.64,164.89,133.46,164.71,142.28Zm-3-44.76c-5.31,0-10.62,0-15.93,0-5.15,0-10.29,0-15.44,0-2.29,0-3.16-.72-3.12-3.18.16-7.8.14-15.61,0-23.41,0-2.51,1-3.07,3.25-3.05q15.69.12,31.37,0c2.39,0,3.19.84,3.16,3.19-.1,7.8-.13,15.61,0,23.41C165,97.06,163.8,97.53,161.68,97.52Z"/><path class="cls-1" d="M63.15,28.91c5.16-.15,10.32-.05,15.49-.05,5,0,10-.14,15,.06,2.76.11,3.83-.67,3.69-3.58-.22-4.82-.06-9.66-.06-14.49,0-11.37,0-11.28-11.43-10.51C83.16.52,82.54,1.58,82.41,4c-.19,3.73,1.89,8.82-1,10.83-2.6,1.81-7.39.49-11.21.54h-.5c-10.3,0-10.21,0-9.73,10.44C60.08,28.28,60.81,29,63.15,28.91Z"/><path class="cls-1" d="M118.46,28.94c2.92-.43,6-.07,9-.08,4,0,8-.1,11.94,0,2.2.08,2.86-.73,2.81-2.86-.12-5,0-10,0-14.93,0-11.13,0-11.06-11.07-10.76-2.43.07-3.82.44-3.36,3.28a25.15,25.15,0,0,1,0,4c0,7.79,0,7.79-8,7.78-7.27,0-7,0-7.39,7.34C112.06,27.62,113.24,29.73,118.46,28.94Z"/></g></g></svg>