<svg xmlns="http://www.w3.org/2000/svg" viewBox="0 0 126.17 179.11"><defs><style>.cls-1{fill:#ccc;}</style></defs><g id="Layer_2" data-name="Layer 2"><g id="Layer_1-2" data-name="Layer 1"><path class="cls-1" d="M114.53,50.08C101,61.87,87.26,73.44,73.58,85.06a7.13,7.13,0,0,0-2.61,6c.12,14,.06,28,.06,42v36c0,10,0,9.81,10.1,10.09,3.85.11,4.6-1,4.57-4.68-.18-25.13,0-50.27-.15-75.41a8.93,8.93,0,0,1,3.39-7.69c10.71-9,21.19-18.2,31.78-27.3,7.12-6.13,7-6,1.26-13.33C119.38,47.34,117.61,47.39,114.53,50.08Z"/><path class="cls-1" d="M52.77,85Q34.31,69.33,16,53.47c-7.91-6.87-7.68-6.81-14.4.92-2.59,3-1.89,4.4.76,6.64C14.31,71.13,26,81.52,38,91.54c2.54,2.12,3.13,4.26,3.12,7.25-.07,23.15,0,46.29,0,69.43,0,11,0,10.82,10.82,10.86,3.11,0,3.88-.8,3.84-3.88-.18-14-.08-28-.08-42s-.1-28,.08-41.95A7.31,7.31,0,0,0,52.77,85Z"/><path class="cls-1" d="M93.19,30A29.64,29.64,0,0,0,63.73,0C46.9-.06,33.3,13.18,33.28,29.63c0,16,13.42,29.31,29.63,29.46C79.62,59.25,93.13,46.26,93.19,30Zm-30,15.63c-8.54-.07-15.21-7.34-15-16.36.21-9.19,6.88-15.85,15.66-15.63,8.3.21,14.65,7.36,14.5,16.3S71.6,45.67,63.23,45.6Z"/></g></g></svg>