<svg id="Layer_1" data-name="Layer 1" xmlns="http://www.w3.org/2000/svg" viewBox="0 0 820.4 187.13"><defs><style>.cls-1{fill:#ebb22b;}.cls-2{fill:#df1e5b;}.cls-3{fill:#37c4ee;}.cls-4{fill:#fff;}</style></defs><title>nextline</title><polygon class="cls-1" points="0 121.66 40.32 160.48 0 160.48 0 121.66"/><polygon class="cls-2" points="0 1.81 152.11 160.48 192.43 160.48 40.32 1.81 0 1.81"/><polygon class="cls-3" points="153.03 1.81 192.43 39.52 192.43 1.81 153.03 1.81"/><path class="cls-4" d="M267.67,104.2v14.57c6.29-11.26,17.72-15.9,29.15-16.06,21.86,0,36.93,13.41,36.93,36.1V186h-8.11V139c0-18.55-11.43-28.49-29.15-28.32-16.9.16-28.66,12.92-28.66,29.81V186h-8.11V104.2Z" transform="translate(-12 -70.08)"/><path class="cls-4" d="M350.31,145.11c0-24.51,18.55-42.24,41.57-42.24s43.56,14.08,40.41,46h-73.7c1.66,19.21,16.4,30.3,33.29,30.3,10.76,0,23.35-4.3,29.48-12.42l5.8,4.64c-8,10.43-22.2,15.73-35.28,15.73C368.86,187.17,350.31,171.11,350.31,145.11ZM425,141.79c-.16-20.2-13.41-31.46-33.12-31.46-16.89,0-31.47,11.42-33.29,31.46Z" transform="translate(-12 -70.08)"/><path class="cls-4" d="M480.48,137.65l24.35-33.45h9.77v.33l-29.31,39.09,31.63,42.06V186h-9.61l-26.83-36.6L453.65,186h-9.6v-.33l31.63-42.06-29.31-39.09v-.33h9.77Z" transform="translate(-12 -70.08)"/><path class="cls-4" d="M550.87,79.52V104.2h27.82V111H550.87v49.85c0,11.1,2.32,18.88,15.07,18.88a30.33,30.33,0,0,0,12.59-3.31l2.81,6.62c-5.13,2.49-10.27,4.14-15.4,4.14-17.39,0-23-10.26-23-26.33V111H525.53V104.2h17.39V80.35Z" transform="translate(-12 -70.08)"/><path class="cls-4" d="M605.52,70.08V186H597.4V70.08Z" transform="translate(-12 -70.08)"/><path class="cls-4" d="M639,77.53c0,8.62-13.08,8.62-13.08,0S639,68.92,639,77.53Zm-10.76,26.34V186h8.11V103.87Z" transform="translate(-12 -70.08)"/><path class="cls-4" d="M667.46,104.2v14.57c6.29-11.26,17.72-15.9,29.15-16.06,21.86,0,36.93,13.41,36.93,36.1V186h-8.12V139c0-18.55-11.42-28.49-29.15-28.32-16.89.16-28.65,12.92-28.65,29.81V186h-8.11V104.2Z" transform="translate(-12 -70.08)"/><path class="cls-4" d="M750.1,145.11c0-24.51,18.55-42.24,41.57-42.24s43.56,14.08,40.41,46h-73.7c1.66,19.21,16.4,30.3,33.29,30.3,10.76,0,23.35-4.3,29.48-12.42l5.8,4.64c-8,10.43-22.2,15.73-35.28,15.73C768.65,187.17,750.1,171.11,750.1,145.11Zm74.69-3.32c-.16-20.2-13.41-31.46-33.12-31.46-16.89,0-31.47,11.42-33.29,31.46Z" transform="translate(-12 -70.08)"/><path class="cls-4" d="M282.6,236.82a13.18,13.18,0,0,1-9.39,3.86c-7.25,0-13.24-5-13.24-13.14s5.79-13.14,13.24-13.14a13.43,13.43,0,0,1,9.39,3.86l-1.67,1.62a10.91,10.91,0,0,0-7.72-3.08c-5.84,0-10.74,3.81-10.74,10.74s4.9,10.74,10.74,10.74a10.9,10.9,0,0,0,7.67-3.18Z" transform="translate(-12 -70.08)"/><path class="cls-4" d="M287.13,227.59c0-8.18,5.84-13.4,13.09-13.4s13.09,5.22,13.09,13.4-5.84,13.19-13.09,13.19S287.13,235.78,287.13,227.59Zm23.68,0c0-6.67-4.75-11-10.59-11s-10.58,4.33-10.58,11,4.74,10.69,10.58,10.69S310.81,234.27,310.81,227.59Z" transform="translate(-12 -70.08)"/><path class="cls-4" d="M343.92,203.92v36.5h-2.51v-5.68a12.12,12.12,0,0,1-10.74,6.1c-7.19,0-12.87-4.75-12.87-13.3s5.73-13.29,12.93-13.29c4.43,0,8.6,1.87,10.68,6V203.92ZM320.3,227.54c0,7.14,4.74,10.79,10.53,10.79,6.05,0,10.53-4.43,10.53-10.84s-4.59-10.79-10.53-10.79C325,216.7,320.3,220.29,320.3,227.54Z" transform="translate(-12 -70.08)"/><path class="cls-4" d="M354.66,206.27a2.06,2.06,0,0,1-4.12,0A2.06,2.06,0,0,1,354.66,206.27Zm-3.39,8.29v25.86h2.56V214.56Z" transform="translate(-12 -70.08)"/><path class="cls-4" d="M363.63,214.66v4.59c2-3.54,5.58-5,9.18-5.06,6.88,0,11.62,4.23,11.62,11.37v14.86h-2.55V225.61c0-5.84-3.6-9-9.18-8.91-5.32.05-9,4.06-9,9.38v14.34h-2.55V214.66Z" transform="translate(-12 -70.08)"/><path class="cls-4" d="M411.81,213.62l1.67,1.46L411,218a12.05,12.05,0,0,1,3.18,8.76,12.17,12.17,0,0,1-6.93,11c4.54,1.61,7,4.79,7,9.23,0,6.93-5.42,10.27-12.25,10.27s-12.2-3.76-12.2-10.27h2.55c0,5.26,4.48,7.77,9.65,7.77s9.75-2.3,9.75-7.77-5-7.72-9.75-7.72c-7.46,0-12.1-5.58-12.1-12.46,0-8,5.42-12.57,12.1-12.57a13.1,13.1,0,0,1,7.3,2.35Zm-19.35,13.14c0,5.32,3.65,9.91,9.55,9.91a9.89,9.89,0,0,0,9.64-9.91c0-6.52-4.33-10-9.64-10S392.46,220,392.46,226.76Z" transform="translate(-12 -70.08)"/><path class="cls-4" d="M436.42,240.42V217.11h-5.26v-2.24h5.26v-2.29c0-5.11,2-8.82,7.72-8.82a8.4,8.4,0,0,1,5.11,1.78L448,207.42a7,7,0,0,0-4-1.31c-3.23,0-5.11,2-5.11,6.47v2.29h8.5v2.24h-8.5v23.31Z" transform="translate(-12 -70.08)"/><path class="cls-4" d="M473.08,240.42v-4.64c-2,3.54-5.58,5-9.18,5.06-6.88,0-11.63-4.23-11.63-11.37V214.61h2.56v14.81c0,5.84,3.6,9,9.18,8.91,5.31-.05,9-4.06,9-9.38V214.61h2.55v25.81Z" transform="translate(-12 -70.08)"/><path class="cls-4" d="M488.2,206.89v7.77H497v2.14H488.2v15.69c0,3.5.73,5.95,4.75,5.95a9.52,9.52,0,0,0,4-1.05l.88,2.09a11.24,11.24,0,0,1-4.84,1.3c-5.48,0-7.25-3.23-7.25-8.29V216.8h-5.48v-2.14h5.48v-7.51Z" transform="translate(-12 -70.08)"/><path class="cls-4" d="M523.61,240.42v-4.64a10.29,10.29,0,0,1-9.18,5.06c-6.88,0-11.63-4.23-11.63-11.37V214.61h2.56v14.81c0,5.84,3.59,9,9.17,8.91,5.32-.05,9-4.06,9-9.38V214.61h2.56v25.81Z" transform="translate(-12 -70.08)"/><path class="cls-4" d="M535.23,214.66l.11,4.59c1.62-3.49,5.27-4.85,8.55-4.85a10.1,10.1,0,0,1,5.53,1.51L548.27,218a8.34,8.34,0,0,0-4.38-1.2,8.55,8.55,0,0,0-8.5,8.6v15h-2.55V214.66Z" transform="translate(-12 -70.08)"/><path class="cls-4" d="M551.82,227.54a12.94,12.94,0,0,1,13.08-13.29c7.25,0,13.72,4.43,12.73,14.49H554.42a10.14,10.14,0,0,0,10.48,9.54c3.39,0,7.36-1.35,9.28-3.91l1.83,1.46c-2.5,3.29-7,4.95-11.11,4.95C557.66,240.78,551.82,235.73,551.82,227.54Zm23.51-1c-.05-6.36-4.22-9.91-10.43-9.91-5.31,0-9.9,3.6-10.48,9.91Z" transform="translate(-12 -70.08)"/></svg>