<svg xmlns="http://www.w3.org/2000/svg" viewBox="0 0 150.04 178.78"><defs><style>.cls-1{fill:#ccc;}</style></defs><g id="Layer_2" data-name="Layer 2"><g id="Layer_1-2" data-name="Layer 1"><path class="cls-1" d="M133.88,48.26c6.83-6.13,6.39-6.22.07-12.81-2.91-3-4.73-2.61-7.17.15-1.76,2-4,3.57-5.71,5.57s-3.19,1.9-5.43.51A76,76,0,0,0,75.13,30a87.46,87.46,0,0,0-11.42.92,74.1,74.1,0,0,0-63,83.82C6.51,156.22,44.19,184,85.86,178c28.34-4.12,48.19-20.3,58.61-46.61,10.33-26.07,6.08-50.95-11.12-73.16C130.1,54,129.87,51.85,133.88,48.26ZM75.29,165.48c-33.32.16-60.28-27.06-60.41-61-.8-32.82,26.93-59.6,56.85-61,35.72-1.67,63.34,28.22,63.29,60.25C135,137.66,108.41,165.32,75.29,165.48Z"/><path class="cls-1" d="M60.85,21.32c1.5.05,3,0,4.49.13,1.32.11,2-.55,1.79-1.68-1.44-7.07,3.22-6.3,7.64-6.19s8.3-1.11,8.5,6.38c.09,3.33,7.45.4,11.4,1.4,1.58.39,2.27-.1,2.54-1.92C99,7.75,92.45.06,80.57,0H75.08c-3,0-6-.11-9,0-6,.29-11.68,4.85-13,10.62-.77,3.39-1.15,7.19.26,10.18C53.86,22,58.24,21.23,60.85,21.32Z"/><path class="cls-1" d="M82.27,77.65c0-11.27,0-11.18-11.22-10.64-2.84.14-3.75,1.17-3.67,3.89.14,4.8,0,9.61,0,14.42v8c0,11.11,0,11,11,10.79,3.07-.06,4-1,3.94-4C82.15,92.57,82.27,85.11,82.27,77.65Z"/></g></g></svg>